<?xml version="1.0" encoding="UTF-8"?>
<svg width="100%" height="100%" viewBox="0 0 1045 240" version="1.1" xmlns="http://www.w3.org/2000/svg" xmlns:xlink="http://www.w3.org/1999/xlink">
    <g id="Optherium" fill-rule="nonzero">
        <g id="Group-2">
            <polygon id="Clip-27" fill="#4B49FF" points="80 225.631297 105.05 239.89 105.05 217.076077 105.05 194.262154 105.05 171.448702 80 157.19"></polygon>
            <g id="Group" transform="translate(80.000000, 91.000000)">
                <polygon id="Clip-21" fill="#716FFF" points="0 13.9826424 25 27.9652845 50 13.9826424 25 0"></polygon>
                <polygon id="Clip-24" fill="#3230C9" points="25 27.9668203 25 55.9 50 41.9331797 50 14"></polygon>
                <polygon id="Clip-30" fill="#4B49FF" points="0 41.9331797 25 55.9 25 27.9668203 0 14"></polygon>
            </g>
            <path d="M0.2,60.0892469 L20.1429024,71.5349081 L20.1452786,71.5334909 L40.088181,82.9791516 L40.0858047,82.9805688 L60.0287072,94.4262295 L104.899763,68.6734928 L149.771293,94.4262295 L154.774127,91.5544214 L154.774602,91.5548939 L209.6,60.0892469 L199.639954,54.3730306 L104.899763,0 L0.2,60.0892469 Z M30.1167298,65.8106603 L104.899763,22.8913217 L179.696577,65.8182188 L159.754149,77.26388 L104.899763,45.7826434 L50.0596324,77.256321 L30.1167298,65.8106603 Z" id="Clip-33" fill="#716FFF"></path>
            <path d="M0.2,180.084706 L60,214.38 L60,94.3457651 L0.2,60.05 L0.2,180.084706 Z M20.1333333,168.652784 L20.1333333,82.9067656 L40.0666667,94.3386877 L40.0666667,180.084706 L20.1333333,168.652784 Z" id="Clip-36" fill="#4B49FF"></path>
            <path d="M209.7,60.1 L189.757143,71.5159331 L189.757143,71.5248855 L169.814285,82.9408182 L169.814285,82.9318658 L149.871429,94.3477986 L149.871429,145.719025 L105,171.404874 L105,194.236269 L105.028039,194.221191 L105.028039,217.052585 L105,217.068134 L105,239.9 L209.7,179.966823 L209.7,60.1 Z M114.998993,188.513224 L169.814285,157.134958 L169.814285,94.3567514 L189.757143,82.9408182 L189.757143,168.550891 L114.998993,211.344618 L114.998993,188.513224 Z" id="Clip-39" fill="#3230C9"></path>
        </g>
        <g id="optherium-color-white" transform="translate(309.000000, 53.000000)" fill="#ffffff">
            <g id="Group">
                <g id="Shape">
                    <path d="M116.532402,61.9094891 C116.532402,94.6394161 91.9206704,120.10219 58.349162,120.10219 C24.7776536,120.10219 0.165921788,94.5839416 0.165921788,61.9094891 C0.165921788,28.9021898 24.9435754,3.38394161 58.349162,3.38394161 C91.7547486,3.38394161 116.532402,28.9021898 116.532402,61.9094891 Z M98.6128492,61.9094891 C98.6128492,37.0569343 81.9653631,19.4160584 58.349162,19.4160584 C34.6776536,19.4160584 18.0854749,37.0569343 18.0854749,61.9094891 C18.0854749,86.5956204 34.7329609,104.070073 58.349162,104.070073 C82.0206704,104.070073 98.6128492,86.5956204 98.6128492,61.9094891 Z"></path>
                    <path d="M150.435754,54.6978102 C157.127933,46.6540146 166.253631,45.1007299 171.839665,45.1007299 C190.201676,45.1007299 206.019553,59.5240876 206.019553,82.3240876 C206.019553,105.567883 188.597765,120.157664 171.950279,120.157664 C168.134078,120.157664 157.736313,118.881752 150.380447,109.728467 L150.380447,151.556204 L134.064804,151.556204 L134.064804,47.0423358 L150.380447,47.0423358 L150.380447,54.6978102 L150.435754,54.6978102 Z M149.495531,82.7678832 C149.495531,94.8058394 156.353631,105.345985 169.461453,105.345985 C181.794972,105.345985 189.095531,95.0832117 189.095531,82.4350365 C189.095531,67.6788321 179.361453,59.8569343 169.461453,59.8569343 C159.229609,59.8569343 149.495531,67.6788321 149.495531,82.7678832 Z"></path>
                    <polygon points="239.591061 61.7430657 239.591061 117.883212 223.275419 117.883212 223.275419 61.7430657 216.251397 61.7430657 216.251397 46.9868613 223.275419 46.9868613 223.275419 21.6350365 239.591061 21.6350365 239.591061 46.9868613 252.035196 46.9868613 252.035196 61.7430657"></polygon>
                    <path d="M262.65419,0.0554744526 L278.969832,0.0554744526 L278.969832,53.1445255 C285.219553,46.4321168 292.409497,45.1007299 297.995531,45.1007299 C310.93743,45.1007299 317.021229,51.8131387 318.956983,54.6978102 C323.436872,61.2437956 323.436872,69.1211679 323.436872,74.3912409 L323.436872,117.827737 L307.121229,117.827737 L307.121229,76 C307.121229,71.1737226 307.287151,67.5124088 303.913408,63.6291971 C301.535196,60.7445255 298.493296,59.8014599 294.455866,59.8014599 C288.206145,59.8014599 284.224022,63.0189781 282.288268,65.9036496 C279.246369,70.3970803 278.914525,77.4423358 278.914525,83.7109489 L278.914525,117.883212 L262.598883,117.883212 L262.598883,0.0554744526 L262.65419,0.0554744526 Z"></path>
                    <path d="M407.780447,99.4656934 C405.568156,103.626277 402.360335,108.119708 398.488827,111.50365 C389.860894,119.214599 378.522905,120.157664 373.877095,120.157664 C357.561453,120.157664 339.697207,108.785401 339.697207,82.989781 C339.697207,60.2452555 352.97095,45.1562044 373.76648,45.1562044 C386.376536,45.1562044 395.502235,50.5927007 400.64581,58.1372263 C404.959777,64.5722628 407.172067,74.5021898 407.172067,83.9328467 L407.172067,86.4846715 L356.676536,86.4846715 C357.00838,99.4656934 367.074302,105.40146 375.702235,105.40146 C380.182123,105.40146 383.998324,103.792701 386.874302,101.573723 C387.537989,101.074453 391.520112,97.9124088 394.064246,91.810219 L407.780447,99.4656934 Z M390.358659,73.0043796 C388.422905,64.849635 382.06257,59.8569343 374.043017,59.8569343 C366.189385,59.8569343 359.663128,65.1270073 357.561453,73.0043796 L390.358659,73.0043796 Z"></path>
                    <path d="M424.096089,47.0423358 L440.411732,47.0423358 L440.411732,53.4773723 C443.785475,49.3167883 449.205587,45.1562044 457.169832,45.1562044 C461.151955,45.1562044 466.295531,46.4321168 470.443575,49.3167883 L463.087709,64.2394161 C460.04581,61.6875912 456.561453,60.8554745 453.796089,60.8554745 C448.044134,60.8554745 444.836313,63.9065693 443.232402,66.4583942 C440.522346,70.7854015 440.356425,76.5547445 440.356425,81.0481752 L440.356425,117.938686 L424.040782,117.938686 L424.040782,47.0423358 L424.096089,47.0423358 Z"></path>
                    <path d="M487.53352,7.26715328 C493.285475,7.26715328 498.097207,12.0934307 498.097207,17.8627737 C498.097207,23.6321168 493.285475,28.4583942 487.53352,28.4583942 C481.781564,28.4583942 476.969832,23.6321168 476.969832,17.8627737 C476.969832,12.0379562 481.781564,7.26715328 487.53352,7.26715328 Z M495.663687,47.0423358 L495.663687,117.883212 L479.348045,117.883212 L479.348045,47.0423358 L495.663687,47.0423358 Z"></path>
                    <path d="M531.77933,47.0423358 L531.77933,87.7605839 C531.77933,92.0875912 531.77933,96.7474453 534.821229,100.575182 C537.03352,103.459854 540.573184,105.40146 545.71676,105.40146 C550.805028,105.40146 554.344693,103.459854 556.612291,100.575182 C559.65419,96.7474453 559.65419,92.0875912 559.65419,87.7605839 L559.65419,47.0423358 L575.969832,47.0423358 L575.969832,88.0934307 C575.969832,96.4145985 575.472067,104.125547 568.448045,111.337226 C561.092179,119.048175 550.36257,120.157664 545.440223,120.157664 C541.126257,120.157664 530.56257,119.048175 523.040782,111.337226 C516.01676,104.125547 515.518994,96.4145985 515.518994,88.0934307 L515.518994,47.0423358 L531.77933,47.0423358 Z"></path>
                    <path d="M595.714525,47.0423358 L612.030168,47.0423358 L612.030168,53.5883212 C616.841899,47.4861314 622.759777,45.1007299 629.617877,45.1007299 C632.99162,45.1007299 642.559777,45.7664234 647.813966,55.6963504 C653.565922,46.8759124 662.69162,45.1007299 668.775419,45.1007299 C679.173184,45.1007299 685.422905,50.2043796 688.907263,56.3065693 C690.677095,59.1912409 692.557542,63.8510949 692.557542,74.1138686 L692.557542,117.883212 L676.241899,117.883212 L676.241899,78.940146 C676.241899,70.9518248 675.301676,67.7343066 674.803911,66.2919708 C673.2,62.2978102 670.324022,59.8569343 665.346369,59.8569343 C659.760335,59.8569343 656.718436,63.2408759 655.446369,65.2934307 C654.506145,66.7357664 652.238547,70.8963504 652.238547,81.3255474 L652.238547,117.883212 L636.03352,117.883212 L636.03352,78.940146 C636.03352,75.389781 635.535754,69.1766423 634.429609,66.2919708 C632.659777,61.6321168 629.451955,59.8569343 624.972067,59.8569343 C619.994413,59.8569343 616.952514,62.4087591 615.072067,65.2934307 C612.362011,69.4540146 612.030168,75.5562044 612.030168,81.3255474 L612.030168,117.883212 L595.714525,117.883212 L595.714525,47.0423358 Z"></path>
                </g>
            </g>
            <g id="Group" transform="translate(706.000000, 47.000000)">
                <polygon id="Shape" points="12.0545455 2.66666667 7.52727273 2.66666667 7.52727273 14.9444444 5.01818182 14.9444444 5.01818182 2.66666667 0.490909091 2.66666667 0.490909091 0.5 12 0.5 12 2.66666667"></polygon>
                <polygon id="Shape" points="29.6727273 14.9444444 27.3272727 14.9444444 27.3272727 3.83333333 23.4 14.9444444 21.3818182 14.9444444 17.3454545 3.83333333 17.3454545 14.9444444 15 14.9444444 15 0.5 18.4909091 0.5 22.4727273 11.7777778 26.2909091 0.5 29.7818182 0.5 29.7818182 14.9444444"></polygon>
            </g>
        </g>
    </g>
</svg>